# xmcd
#
# Track frame offsets: 
#        150
#        15089
#        34835
#
# Disc length: 725 seconds
#
# Revision: 0
# Processed by: cddbd v1.5.2PL0 Copyright (c) Steve Scherf et al.
# Submitted via: ExactAudioCopy v0.99pb4
#
DISCID=1302d303
DTITLE=Nelly Furtado - Maneater (Single)
DYEAR=2006
DGENRE=R&B
TTITLE0=Maneater (Radio Edit)
TTITLE1=Maneater
TTITLE2=Maneater (Instrumental)
EXTD=
EXTT0=
EXTT1=
EXTT2=
PLAYORDER=
